<?xml version="1.0" encoding="utf-8"?>
<!-- Generator: Adobe Illustrator 26.5.2, SVG Export Plug-In . SVG Version: 6.00 Build 0)  -->
<svg version="1.1" id="Layer_1" xmlns="http://www.w3.org/2000/svg" xmlns:xlink="http://www.w3.org/1999/xlink" x="0px" y="0px"
	 viewBox="0 0 500 500" style="enable-background:new 0 0 500 500;" xml:space="preserve">
<style type="text/css">
	.st0{fill:url(#SVGID_1_);}
	.st1{fill:url(#SVGID_00000067224639519358230980000011383033683582716815_);}
	.st2{fill:url(#SVGID_00000168079371642510776420000002253795384424462269_);}
</style>
<g>
	
		<linearGradient id="SVGID_1_" gradientUnits="userSpaceOnUse" x1="127.5743" y1="361.9221" x2="350.0055" y2="82.3642" gradientTransform="matrix(1 0 0 -1 0 502)">
		<stop  offset="0" style="stop-color:#712C86"/>
		<stop  offset="1" style="stop-color:#1D174D"/>
	</linearGradient>
	<path class="st0" d="M350.9,136.5c-16.3-5.6-35.2-5.1-52.1,2c-10.7,4.6-23,7.2-34.7,7.7c5.6-26.6,20.4-60.8,58.2-84.3
		c5.1-3.1,6.6-9.7,3.6-14.8c-3.1-5.1-9.7-6.6-14.8-3.6c-19.4,12.3-33.7,26.6-43.9,41.9C264,63,251.8,41.5,232.9,27.7
		c-25-18.9-58.2-23-86.8-10.7c-3.6,1.5-6.1,4.6-6.6,8.7c-4.1,31.2,9.2,61.8,34.2,80.7c15.3,11.7,34.2,17.4,52.6,17.4
		c7.7,0,15.3-1,22.5-3.1c-3.1,8.7-5.1,17.4-6.6,25.5c-16.3-1-30.6-4.6-40.4-8.2c-16.9-6.6-35.2-7.2-51.1-2
		c-57.2,19.4-95.5,90.4-95.5,175.7c0,57.2,18.9,109.3,52.1,144.1c19.9,20.4,49,33.2,79.7,34.2c1,0,2,0,3.1,0
		c13.8,0,28.1-3.1,42.4-9.7c5.6-2.6,10.7-3.6,15.3-4.1h1.5c6.1,0,12.8,1.5,18.9,4.1l0,0c14.8,6.6,30.1,9.7,45,9.2
		c30.6-1,59.8-13.3,79.7-34.2c33.2-34.7,52.1-86.8,52.1-144.1C444.9,226.9,407.1,156.4,350.9,136.5L350.9,136.5z M185.9,89.5
		c-17.4-12.8-27.1-33.2-26.6-54.7c20.4-6.1,42.9-2.6,59.8,10.2c13.3,9.7,22,24.5,25,40.4l-35.2-26.6c-4.6-3.6-11.2-2.6-14.8,2
		c-3.6,4.6-2.6,11.2,2,14.8l35.2,26.6C215.5,103.8,199.2,99.7,185.9,89.5L185.9,89.5z M377.4,441c-15.8,16.9-39.8,26.6-64.9,27.6
		c-11.7,0.5-24-2-35.2-7.7c-9.2-4.1-18.9-6.1-28.1-6.1h-2c-7.7,0.5-15.3,2-23.5,6.1c-11.7,5.1-24,7.7-35.2,7.7
		c-25.5-1-49-10.7-64.9-27.6c-29.1-30.1-46-78.7-46-129.2c0-76.1,32.7-138.4,80.7-155.3c5.1-1.5,10.2-2.6,15.3-2.6
		c6.6,0,13.8,1.5,20.9,4.1c9.7,3.6,26.1,8.2,45.5,9.7c-0.5,5.1-0.5,9.7-0.5,13.3c-11.2-1.5-18.4-5.1-18.9-5.6
		c-5.1-3.1-11.7-1-14.3,4.1c-3.1,5.1-1,11.7,4.1,14.3c1,0.5,16.3,8.7,38.8,8.7c11.2,0,24.5-2,38.8-8.7c5.6-2.6,7.7-8.7,5.6-14.3
		c-2.6-5.6-8.7-7.7-14.3-5.6c-6.6,3.1-12.8,4.6-18.4,5.6c0-3.1,0-7.2,0.5-12.3c15.3-0.5,31.2-3.6,46-9.7c12.3-5.1,25.5-5.6,36.8-2
		c47,18.4,79.7,80.7,79.7,156.3C423.9,362.8,406.6,410.8,377.4,441L377.4,441z"/>
	
		<linearGradient id="SVGID_00000024688671863186522160000007800641369661377449_" gradientUnits="userSpaceOnUse" x1="6.5899" y1="265.6607" x2="229.021" y2="-13.8977" gradientTransform="matrix(1 0 0 -1 0 502)">
		<stop  offset="0" style="stop-color:#712C86"/>
		<stop  offset="1" style="stop-color:#1D174D"/>
	</linearGradient>
	<path style="fill:url(#SVGID_00000024688671863186522160000007800641369661377449_);" d="M165.5,426.1c-37.8-31.2-46-74.6-46-75.1
		c-1-5.6-6.6-9.7-12.3-8.7c-5.6,1-9.7,6.6-8.7,12.3c0.5,2,9.2,52.1,53.6,88.4c2,1.5,4.6,2.6,6.6,2.6c3.1,0,6.1-1.5,8.2-4.1
		C170.6,436.9,170.1,429.7,165.5,426.1L165.5,426.1z"/>
	
		<linearGradient id="SVGID_00000058547432706287126960000015448695966930077852_" gradientUnits="userSpaceOnUse" x1="237.9158" y1="449.7152" x2="460.347" y2="170.1573" gradientTransform="matrix(1 0 0 -1 0 502)">
		<stop  offset="0" style="stop-color:#712C86"/>
		<stop  offset="1" style="stop-color:#1D174D"/>
	</linearGradient>
	<path style="fill:url(#SVGID_00000058547432706287126960000015448695966930077852_);" d="M378,200.4
		c-15.8-31.7-48.5-32.2-49.5-32.2c-5.6,0-10.7,4.6-10.7,10.7c0,5.6,4.6,10.7,10.7,10.7c1,0,20.9,0.5,30.6,20.4
		c2,3.6,5.6,5.6,9.7,5.6c1.5,0,3.1-0.5,4.6-1C378.5,212.1,380.5,205.5,378,200.4L378,200.4z"/>
</g>
</svg>
