<svg xmlns="http://www.w3.org/2000/svg" xmlns:xlink="http://www.w3.org/1999/xlink" width="336" height="78" fill="none" xmlns:v="https://vecta.io/nano"><g clip-path="url(#A)"><g fill="#fff"><path d="M195.737 3.513h6.937c.918 0 1.748.123 2.485.369s1.372.604 1.898 1.071.936 1.053 1.224 1.76.434 1.517.434 2.435c0 .868-.15 1.655-.446 2.357s-.705 1.309-1.224 1.811a5.21 5.21 0 0 1-1.861 1.149c-.722.263-1.517.396-2.385.396h-2.653v5.66h-4.409V3.513zm6.553 7.802c.61 0 1.096-.196 1.452-.587s.537-.893.537-1.505c0-.647-.171-1.164-.512-1.555s-.84-.587-1.504-.587h-2.117v4.233h2.144zm12.258-7.802h7.04c.917 0 1.745.12 2.485.356s1.371.589 1.898 1.058.933 1.051 1.224 1.745.434 1.505.434 2.423c0 1.121-.246 2.094-.74 2.919a5.66 5.66 0 0 1-1.964 1.976l3.647 6.528h-4.843l-2.881-5.788h-1.886v5.788h-4.411V3.513h-.003zm6.606 7.676c.594 0 1.078-.183 1.452-.547s.559-.855.559-1.467c0-.647-.178-1.156-.537-1.53s-.857-.562-1.504-.562h-2.167v4.105h2.194.003zm12.827-7.676h4.514v17.008h-4.514V3.513zm11.772 0h4.31l4.131 7.421 4.055-7.421h4.336l.79 17.008h-4.567l-.406-9.971-2.985 5.813h-2.472l-3.315-5.813-.331 9.971h-4.336l.79-17.008zm27.979 0h5.178l6.019 17.008h-4.87l-1.096-3.518h-5.688l-1.121 3.518h-4.667l6.247-17.008h-.002zm4.311 10.199l-1.886-6.247-1.964 6.247h3.85zm11.199-10.199h7.037c.918 0 1.748.12 2.485.356s1.375.589 1.901 1.058a4.74 4.74 0 0 1 1.222 1.745c.289.694.434 1.505.434 2.423 0 1.121-.246 2.094-.74 2.919s-1.149 1.485-1.964 1.976l3.646 6.528h-4.845l-2.881-5.788h-1.888v5.788h-4.409V3.513h.002zm6.603 7.676c.595 0 1.079-.183 1.455-.547s.559-.855.559-1.467c0-.647-.178-1.156-.536-1.53s-.861-.562-1.505-.562h-2.169v4.105h2.194.002zm16.218 2.569L306.02 3.531h5.178l3.315 6.069 3.11-6.069h5.023l-6.069 10.199v6.809h-4.514v-6.783.002z"/><use xlink:href="#B"/><path d="M217.653 29.875h12.24v3.902h-7.726v2.626h6.35v3.671h-6.35v2.907h8.26v3.902h-12.774V29.875zm22.354 0h5.179l6.018 17.008h-4.87l-1.096-3.519h-5.687l-1.121 3.519h-4.667l6.247-17.008h-.003zm4.311 10.199l-1.886-6.247-1.963 6.247h3.849zm11.072-10.199h4.514v13.03h7.879v3.977H255.39V29.875zm19.811 3.952h-5.228v-3.952h14.969v3.952h-5.176v13.056h-4.567V33.827h.002zm14.242-3.952h4.514v6.222h6.272v-6.222h4.514v17.008h-4.514v-6.656h-6.272v6.656h-4.514V29.875zm-93.706 26.299h4.106l6.527 9.487v-9.487h4.462v17.008h-3.85l-6.783-9.768v9.768h-4.462V56.174zm21.916 0h12.24v3.902h-7.726v2.626h6.35v3.671h-6.35v2.906h8.26v3.902h-12.774V56.174zm22.868 3.953h-5.228v-3.952h14.968v3.952h-5.178v13.056h-4.564V60.127h.002zm13.613-3.953h4.769l2.195 11.398 2.678-10.992h4.105l2.704 10.992 2.166-11.398h4.615l-4.231 17.008h-4.72l-2.678-10.761-2.678 10.761h-4.795l-4.133-17.008h.003zm34.251 17.417c-1.274 0-2.453-.226-3.531-.675s-2.016-1.071-2.806-1.861-1.407-1.733-1.846-2.831-.665-2.292-.665-3.584.221-2.485.665-3.584 1.056-2.039 1.846-2.831 1.725-1.407 2.806-1.848 2.257-.662 3.531-.662 2.457.223 3.543.662c1.089.444 2.024 1.058 2.806 1.848s1.392 1.733 1.836 2.831.665 2.292.665 3.584-.223 2.485-.665 3.584a8.48 8.48 0 0 1-1.836 2.831 8.41 8.41 0 0 1-2.806 1.861c-1.089.449-2.269.675-3.543.675zm0-4.233c.662 0 1.254-.123 1.773-.371s.955-.582 1.314-1.008a4.37 4.37 0 0 0 .815-1.505c.186-.58.281-1.191.281-1.836a5.91 5.91 0 0 0-.281-1.836 4.43 4.43 0 0 0-.815-1.505c-.356-.426-.795-.76-1.314-1.008s-1.111-.371-1.773-.371-1.254.125-1.773.371a3.84 3.84 0 0 0-1.314 1.008 4.39 4.39 0 0 0-.815 1.505c-.186.577-.281 1.191-.281 1.836a5.9 5.9 0 0 0 .281 1.836c.188.577.459 1.078.815 1.505a3.81 3.81 0 0 0 1.314 1.008c.519.246 1.108.371 1.773.371zm12.96-13.184h7.037c.918 0 1.748.12 2.485.356s1.374.589 1.901 1.058.933 1.051 1.221 1.745.434 1.505.434 2.422c0 1.121-.246 2.094-.74 2.919a5.67 5.67 0 0 1-1.963 1.976l3.646 6.528h-4.845l-2.881-5.788h-1.889v5.788h-4.409V56.172l.003.003zm6.603 7.676c.594 0 1.078-.183 1.454-.547s.56-.855.56-1.467c0-.647-.178-1.156-.537-1.53s-.86-.562-1.505-.562h-2.169v4.105h2.194.003zm12.293-7.676h4.514v6.375l5.073-6.375h5.277l-5.66 6.553L336 73.182h-5.482l-4.158-6.886-1.607 1.888v4.998h-4.514V56.174h.002z"/></g><path d="M191.223 40.676c-8.541 0-15.493-6.949-15.493-15.493S182.679 9.69 191.223 9.69v4.506a11 11 0 0 0-10.984 10.984 11 11 0 0 0 10.984 10.984v4.506.005z" fill="#a4dbe8"/><path d="M324.748 51.66h-4.507a11 11 0 0 0-10.984-10.984V36.17c8.542 0 15.493 6.949 15.493 15.493l-.002-.002z" fill="#59bf9e"/><g fill="#fff"><path d="M13.74 45.687v-7.11h.712v3.107h3.9v-3.107h.712v7.11h-.712v-3.373h-3.9v3.373h-.712zm8.268-7.11v4.419a3.42 3.42 0 0 0 .085.717c.055.255.158.487.306.7a1.79 1.79 0 0 0 .594.534c.25.143.564.213.945.213s.695-.07.945-.213a1.74 1.74 0 0 0 .594-.534 2.06 2.06 0 0 0 .306-.7c.058-.254.085-.491.085-.717v-4.419h.71v4.419a4.11 4.11 0 0 1-.118.935 2.59 2.59 0 0 1-.411.913c-.196.278-.466.507-.807.69s-.777.273-1.304.273-.963-.093-1.304-.273a2.28 2.28 0 0 1-.808-.69c-.196-.276-.334-.582-.411-.913a4.16 4.16 0 0 1-.118-.935v-4.419h.71zm12.03 6.297v-6.297h.71v7.11h-.965L29.537 39.4h-.02v6.287h-.712v-7.11h.965l4.246 6.297h.02.002zm2.192-6.297h5.484v.63h-2.387v6.48h-.712v-6.48h-2.387v-.63h.002zm11.498 6.48v.63h-4.529v-7.11h4.409v.63h-3.697v2.468h3.453v.63h-3.453v2.753h3.819-.003zm3.729-2.69h-1.362v3.32h-.712v-7.11h1.898c.8 0 1.419.151 1.858.451s.66.777.66 1.427c0 .502-.135.903-.406 1.209s-.667.512-1.189.619l2.011 3.403h-.792l-1.971-3.32h.005zm-1.362-.63h1.189c.582 0 1.026-.108 1.332-.326s.457-.534.457-.956-.156-.742-.467-.945-.752-.303-1.322-.303h-1.189v2.53zm14.169 3.137v-6.297h.71v7.11h-.966L59.763 39.4h-.02v6.287h-.712v-7.11h.965l4.246 6.297h.02.002zm7.536.183v.63h-4.529v-7.11h4.409v.63h-3.697v2.468h3.453v.63h-3.453v2.753h3.819-.003zm1.192-6.48h.742l1.768 6.204h.02l1.798-6.204h.935l1.788 6.197h.02l1.748-6.197h.742l-2.021 7.11h-.945l-1.788-6.197h-.02l-1.798 6.197h-.945l-2.041-7.11h-.002zm18.951 6.48v.63h-4.529v-7.11h4.409v.63h-3.697v2.468h3.453v.63h-3.453v2.753h3.819-.002zm6.889-.183v-6.297h.71v7.11h-.966L94.33 39.4h-.02v6.287h-.712v-7.11h.966l4.246 6.297h.02.002zm8.26-5.018c-.238-.236-.524-.421-.862-.554s-.743-.198-1.209-.198c-.414 0-.8.075-1.159.228a2.75 2.75 0 0 0-.923.629c-.258.268-.461.584-.609.956s-.223.772-.223 1.214.073.835.218 1.209.349.692.609.96.57.477.926.629.742.228 1.163.228a7.32 7.32 0 0 0 1.899-.243v-2.771h.712v3.23a7.79 7.79 0 0 1-2.611.436c-.529 0-1.015-.093-1.462-.273s-.832-.439-1.153-.767-.575-.717-.758-1.169-.273-.94-.273-1.467a3.82 3.82 0 0 1 .278-1.467c.185-.449.442-.84.768-1.169s.709-.584 1.153-.767.926-.273 1.447-.273c.555 0 1.041.083 1.457.248s.773.394 1.071.685l-.456.467h-.003zm2.581-1.279h.712v6.48h3.33v.63h-4.042v-7.11zm5.813 7.11h-.742l3.077-7.11h.752l3.047 7.11h-.752l-.803-1.888h-3.769l-.813 1.888h.003zm2.701-6.257l-1.615 3.739h3.22l-1.585-3.739h-.02zm10.068 5.444v-6.297h.71v7.11H128l-4.246-6.287h-.02v6.287h-.712v-7.11h.965l4.246 6.297h.02.002zm3.005-6.297h2.367c.446 0 .893.075 1.337.223s.842.371 1.198.665a3.41 3.41 0 0 1 .868 1.106c.223.444.336.96.336 1.55s-.11 1.116-.336 1.56a3.44 3.44 0 0 1-.868 1.113c-.356.298-.754.522-1.198.67a4.2 4.2 0 0 1-1.337.223h-2.367v-7.11zm.712 6.48h1.655c.359 0 .717-.063 1.076-.188a2.99 2.99 0 0 0 .965-.554 2.8 2.8 0 0 0 .695-.913c.178-.364.268-.793.268-1.279s-.09-.903-.268-1.269a2.82 2.82 0 0 0-.695-.913c-.283-.243-.606-.426-.965-.549a3.37 3.37 0 0 0-1.076-.183h-1.655v5.851-.003zM13.547 57.875h-.742l3.077-7.11h.752l3.047 7.11h-.752l-.802-1.888h-3.769l-.812 1.888h.003zm2.701-6.257l-1.615 3.737h3.22l-1.585-3.737h-.02zm10.069 5.444v-6.297h.71v7.11h-.965l-4.246-6.287h-.02v6.287h-.712v-7.11h.966l4.246 6.297h.02.003zm3.004-6.297h2.367a4.21 4.21 0 0 1 1.337.223 3.72 3.72 0 0 1 1.199.665 3.37 3.37 0 0 1 .868 1.106c.223.444.336.961.336 1.55s-.11 1.116-.336 1.56-.512.815-.868 1.113a3.64 3.64 0 0 1-1.199.67 4.2 4.2 0 0 1-1.337.223h-2.367v-7.11zm.712 6.48h1.655a3.24 3.24 0 0 0 1.076-.188 3.01 3.01 0 0 0 .965-.554 2.81 2.81 0 0 0 .695-.915c.181-.366.268-.792.268-1.279s-.09-.905-.268-1.269-.411-.67-.695-.913a2.93 2.93 0 0 0-.965-.549 3.3 3.3 0 0 0-1.076-.183h-1.655v5.851zm16.198-.549a2.7 2.7 0 0 1-.426.497 2.92 2.92 0 0 1-.584.411c-.22.118-.464.213-.732.283s-.559.108-.878.108a3.86 3.86 0 0 1-1.462-.273 3.39 3.39 0 0 1-1.154-.767c-.321-.328-.574-.717-.757-1.169s-.273-.94-.273-1.467a3.81 3.81 0 0 1 .278-1.467 3.56 3.56 0 0 1 .767-1.169 3.47 3.47 0 0 1 1.154-.767c.444-.183.925-.276 1.447-.276a3.8 3.8 0 0 1 .757.075 3.26 3.26 0 0 1 .695.223 2.97 2.97 0 0 1 .589.351 2.16 2.16 0 0 1 .446.456l-.529.376c-.183-.256-.451-.459-.807-.609s-.74-.223-1.154-.223a2.92 2.92 0 0 0-1.159.228c-.359.153-.667.361-.923.629a2.94 2.94 0 0 0-.609.956c-.148.369-.223.772-.223 1.214a3.27 3.27 0 0 0 .218 1.209 2.83 2.83 0 0 0 .609.961 2.79 2.79 0 0 0 .925.629 2.91 2.91 0 0 0 1.164.228c.509 0 .935-.1 1.284-.299s.614-.439.797-.715l.539.366zm6.034.549v.63h-4.529v-7.11h4.409v.63h-3.697v2.468h3.453v.63h-3.453v2.754h3.819-.003zm6.889-.183v-6.297h.71v7.11h-.965l-4.246-6.287h-.02v6.287h-.712v-7.11h.965l4.246 6.297h.02.002zm2.191-6.297h5.485v.63h-2.387v6.48h-.712v-6.48h-2.387v-.63h.003zm9.041 3.789h-1.362v3.32h-.712v-7.11h1.898c.8 0 1.419.151 1.858.451s.66.777.66 1.427c0 .502-.136.905-.406 1.209s-.667.512-1.189.619l2.011 3.403h-.792l-1.971-3.32h.005zm-1.362-.63h1.189c.582 0 1.026-.108 1.332-.326s.456-.534.456-.955-.156-.742-.466-.945-.752-.303-1.322-.303h-1.189v2.528.002zm5.891 3.951h-.742l3.077-7.11h.752l3.047 7.11h-.752l-.802-1.888h-3.769l-.813 1.888h.002zm2.701-6.257l-1.615 3.737h3.22l-1.585-3.737h-.02zm4.837-.853h.712v6.48h3.33v.63h-4.043v-7.11zm14.606 5.931a2.7 2.7 0 0 1-.426.497 2.92 2.92 0 0 1-.584.411c-.22.118-.464.213-.732.283s-.559.108-.878.108a3.86 3.86 0 0 1-1.462-.273 3.39 3.39 0 0 1-1.154-.767c-.321-.328-.574-.717-.757-1.169s-.273-.94-.273-1.467a3.82 3.82 0 0 1 .278-1.467 3.56 3.56 0 0 1 .767-1.169 3.47 3.47 0 0 1 1.154-.767c.444-.183.925-.276 1.447-.276a3.8 3.8 0 0 1 .757.075 3.26 3.26 0 0 1 .695.223 2.97 2.97 0 0 1 .589.351 2.16 2.16 0 0 1 .446.456l-.529.376c-.183-.256-.451-.459-.808-.609a2.94 2.94 0 0 0-1.154-.223 2.92 2.92 0 0 0-1.159.228c-.359.153-.667.361-.923.629a2.94 2.94 0 0 0-.609.956c-.148.369-.223.772-.223 1.214a3.27 3.27 0 0 0 .218 1.209 2.83 2.83 0 0 0 .609.961 2.79 2.79 0 0 0 .925.629 2.91 2.91 0 0 0 1.164.228c.509 0 .935-.1 1.284-.299s.614-.439.797-.715l.539.366zm8.23-2.377c0 .529-.093 1.018-.278 1.467s-.442.84-.768 1.169a3.46 3.46 0 0 1-1.153.767c-.444.183-.926.273-1.447.273a3.8 3.8 0 0 1-1.447-.273c-.444-.183-.828-.439-1.154-.767a3.56 3.56 0 0 1-.767-1.169 3.82 3.82 0 0 1-.278-1.467 3.81 3.81 0 0 1 .278-1.467 3.56 3.56 0 0 1 .767-1.169c.326-.328.71-.584 1.154-.767s.925-.276 1.447-.276 1.003.093 1.447.276a3.47 3.47 0 0 1 1.153.767c.326.328.582.717.768 1.169s.278.94.278 1.467zm-.732 0a3.23 3.23 0 0 0-.223-1.214 2.93 2.93 0 0 0-.61-.956 2.78 2.78 0 0 0-.92-.629 2.91 2.91 0 0 0-1.164-.228 2.89 2.89 0 0 0-1.158.228 2.74 2.74 0 0 0-.923.629 2.94 2.94 0 0 0-.609.956c-.148.369-.223.772-.223 1.214a3.22 3.22 0 0 0 .223 1.209 2.91 2.91 0 0 0 .609.961 2.73 2.73 0 0 0 .923.629c.358.153.745.228 1.158.228a2.94 2.94 0 0 0 1.164-.228 2.78 2.78 0 0 0 .92-.629 2.9 2.9 0 0 0 .61-.961 3.25 3.25 0 0 0 .223-1.209zm2.074 3.556h-.742l3.077-7.11h.752l3.047 7.11h-.752l-.803-1.888h-3.769l-.813 1.888h.003zm2.701-6.257l-1.615 3.737h3.22l-1.585-3.737h-.02zm8.223.163c-.096-.088-.213-.171-.356-.243a2.24 2.24 0 0 0-.452-.173 2.38 2.38 0 0 0-.624-.07c-.216 0-.417.03-.6.093s-.341.143-.471.248a1.14 1.14 0 0 0-.306.376 1.08 1.08 0 0 0-.108.471c0 .218.045.399.133.549a1.31 1.31 0 0 0 .346.386 2.62 2.62 0 0 0 .487.288l.559.268.737.356a3.04 3.04 0 0 1 .645.411 1.79 1.79 0 0 1 .456.579c.115.226.173.512.173.858 0 .243-.05.477-.148.695s-.241.414-.426.579-.411.298-.675.396a2.58 2.58 0 0 1-.903.148 2.97 2.97 0 0 1-.965-.143 3.98 3.98 0 0 1-.712-.316c-.223-.136-.417-.288-.58-.457l.487-.426c.128.128.278.243.446.346.163.095.351.175.565.243s.466.1.757.1c.446 0 .795-.113 1.046-.339a1.07 1.07 0 0 0 .376-.828c0-.236-.05-.436-.148-.599a1.51 1.51 0 0 0-.376-.421 3.23 3.23 0 0 0-.512-.321l-.569-.273-.7-.346a3.09 3.09 0 0 1-.619-.406c-.183-.155-.331-.339-.442-.549s-.168-.471-.168-.782c0-.256.056-.497.163-.722a1.82 1.82 0 0 1 .452-.584c.193-.166.426-.296.699-.391s.575-.143.898-.143.585.035.818.108a3.22 3.22 0 0 1 .594.238 2.12 2.12 0 0 1 .487.346l-.467.446.003.003zm1.753-1.016h5.484v.63h-2.387v6.48h-.712v-6.48h-2.388v-.63h.003zM16.195 9.888c-3.403 0-6.533.953-8.439 3.313h-.09c-.953-1.951-3.448-2.766-5.67-2.766-1.224 0-1.996.318-1.996.318l.271 5.896s.183-.045.454-.045c.998 0 1.994.863 1.994 3.175v22.555.093c0 1.906 1.537 3.451 3.443 3.451s3.443-1.537 3.448-3.438h.005V30.896h.09c1.317 1.269 2.859 2.132 4.672 2.495.725.183 1.542.273 2.357.228 5.67-.271 10.207-5.261 10.207-11.839S22.086 9.896 16.19 9.896l.005-.008zM14.382 27.49c-1.951 0-3.629-.998-4.765-2.54v-6.442c1.088-1.542 2.814-2.45 4.765-2.45 3.085 0 5.625 2.45 5.625 5.715s-2.54 5.715-5.625 5.715v.003zM44.488 9.981c-.908-.045-1.861 0-2.766.181-1.816.364-3.448 1.362-4.672 2.814h-.09V0h-6.894v33.115h6.894V18.553c1.134-1.678 2.495-2.495 4.537-2.495 2.814 0 4.263 2.177 4.263 5.49v11.568h6.896V22.229c0-1.362-.09-2.631-.271-3.809-.68-4.945-3.313-8.165-7.894-8.439h-.003zm25.369-.093c-2.859 0-5.715 1.269-6.942 3.947h-.09l-.135-3.403h-6.395v22.68h6.894V18.55c1.134-1.678 2.495-2.495 4.536-2.495 2.811 0 4.263 2.177 4.263 5.49v11.568h6.896V21.544c0-6.987-3.04-11.659-9.028-11.659v.003zM4.348 71.331h.935l1.522 5.663h-.73l-.404-1.555H3.864l-.421 1.555h-.73l1.633-5.663h.003zm-.341 3.538H5.53l-.722-2.736h-.015l-.785 2.736zm3.316-2.126h.634v.499h.015c.176-.389.619-.612 1.031-.612 1.118 0 1.118.85 1.118 1.349v3.014h-.667V74.06c0-.326-.023-.855-.627-.855-.356 0-.84.238-.84.855v2.934H7.32v-4.251h.003zm6.708-1.412h.935l1.522 5.663h-.73l-.404-1.555h-1.808l-.421 1.555h-.73l1.632-5.663h.003zm-.341 3.538h1.522l-.722-2.736h-.015l-.785 2.736zm6.029 2.125h-.634v-.499h-.015c-.173.389-.619.609-1.031.609-1.118 0-1.118-.848-1.118-1.349v-3.014h.667v2.934c0 .326.023.858.627.858.356 0 .84-.238.84-.858v-2.934h.667v4.251l-.003.002zm2.668-3.007c0-.539-.143-.833-.627-.833-.213 0-.69.055-.69.652 0 .499.524.594 1.046.77s1.038.356 1.038 1.199c0 .895-.579 1.332-1.372 1.332-1.444 0-1.459-1.071-1.459-1.507h.667c0 .517.143.983.792.983.213 0 .705-.103.705-.707 0-.572-.524-.69-1.038-.865s-1.046-.326-1.046-1.206c0-.792.619-1.174 1.357-1.174 1.236 0 1.287.858 1.294 1.357h-.667z"/><use xlink:href="#C"/><path d="M25.918 72.743h.667v.635h.015c.191-.404.444-.745.92-.745.135 0 .231.015.293.048v.65c-.063-.007-.143-.033-.356-.033-.334 0-.873.301-.873 1.008v2.688h-.667v-4.251zm2.29 1.284c0-.968.414-1.397 1.427-1.397 1.294 0 1.294.777 1.294 1.221v2.372c0 .173 0 .341.206.341.088 0 .128-.015.158-.04V77c-.048.008-.221.04-.389.04-.253 0-.572 0-.602-.547h-.015a1.2 1.2 0 0 1-1.023.609c-.793 0-1.159-.477-1.159-1.236 0-.594.253-1.008.8-1.174l.895-.268c.484-.15.484-.286.484-.642 0-.396-.238-.627-.682-.627-.73 0-.73.682-.73.833v.04h-.667l.003-.003zm2.054.65c-.246.261-.833.319-1.133.499-.213.135-.326.301-.326.675 0 .429.15.73.602.73s.858-.374.858-.808v-1.096zm1.577-3.346h.667v5.663h-.667v-5.663z"/><use xlink:href="#D"/><path d="M34.758 74.027c0-.968.414-1.397 1.427-1.397 1.294 0 1.294.777 1.294 1.221v2.372c0 .173 0 .341.206.341.088 0 .128-.015.158-.04V77c-.048.008-.221.04-.389.04-.253 0-.572 0-.602-.547h-.015a1.2 1.2 0 0 1-1.023.609c-.792 0-1.159-.477-1.159-1.236 0-.594.253-1.008.8-1.174l.895-.268c.484-.15.484-.286.484-.642 0-.396-.238-.627-.682-.627-.73 0-.73.682-.73.833v.04h-.667l.003-.003zm2.054.65c-.246.261-.833.319-1.134.499-.213.135-.326.301-.326.675 0 .429.15.73.602.73s.858-.374.858-.808v-1.096zm1.555-1.934h.634v.499h.015c.175-.389.619-.612 1.031-.612 1.118 0 1.118.85 1.118 1.349v3.014h-.667V74.06c0-.326-.023-.855-.627-.855-.356 0-.84.238-.84.855v2.934h-.667v-4.251h.003zm8.288.158c-.033-.594-.253-1.111-.943-1.111-.968 0-1.096 1.063-1.096 2.372s.128 2.372 1.096 2.372 1.038-1.159 1.038-1.911h-1.119v-.572h1.753v2.942h-.524v-.77h-.015c-.151.484-.602.88-1.221.88-1.475 0-1.738-1.419-1.738-2.942 0-1.427.263-2.942 1.826-2.942s1.665 1.387 1.673 1.68h-.73zm2.946-.271c1.229 0 1.53 1.038 1.53 2.237s-.308 2.237-1.53 2.237-1.53-1.038-1.53-2.237.308-2.237 1.53-2.237zm.833 2.237c0-.92-.135-1.713-.848-1.713-.675 0-.818.793-.818 1.713s.135 1.713.818 1.713.848-.792.848-1.713zm.93-2.124h.73l.793 3.411h.015l.792-3.411h.73l-1.151 4.251h-.762l-1.151-4.251h.005zm4.023 2.205c0 .65 0 1.633.818 1.633.635 0 .722-.667.722-.983h.667c0 .451-.271 1.507-1.427 1.507-1.038 0-1.475-.722-1.475-2.182 0-1.063.206-2.292 1.515-2.292s1.419 1.134 1.419 2.046v.271h-2.237-.003zm1.54-.524v-.231c0-.477-.15-1.038-.737-1.038-.697 0-.777.858-.777 1.111v.158h1.515zm1.371-1.681h.667v.635h.015c.191-.404.444-.745.92-.745.136 0 .231.015.294.048v.65c-.063-.007-.143-.033-.356-.033-.333 0-.873.301-.873 1.008v2.688h-.667v-4.251zm2.373 0h.635v.499h.015c.175-.389.619-.612 1.031-.612 1.118 0 1.118.85 1.118 1.349v3.014h-.667V74.06c0-.326-.023-.855-.627-.855-.356 0-.84.238-.84.855v2.934h-.667v-4.251h.002zm3.634 0h.634v.499h.015c.173-.389.619-.612 1.031-.612.492 0 .785.191.92.675.191-.374.572-.675 1.008-.675 1.118 0 1.118.85 1.118 1.349v3.014h-.667V74.06c0-.326-.023-.855-.572-.855-.308 0-.792.191-.792.855v2.934h-.667V74.06c0-.326-.023-.855-.572-.855-.308 0-.792.191-.792.855v2.934h-.667v-4.251h.002zm6.139 2.205c0 .65 0 1.633.817 1.633.635 0 .722-.667.722-.983h.667c0 .451-.271 1.507-1.427 1.507-1.038 0-1.475-.722-1.475-2.182 0-1.063.206-2.292 1.515-2.292s1.419 1.134 1.419 2.046v.271h-2.237-.002zm1.54-.524v-.231c0-.477-.15-1.038-.737-1.038-.697 0-.777.858-.777 1.111v.158h1.515zm1.371-1.681h.635v.499h.015c.176-.389.619-.612 1.031-.612 1.118 0 1.118.85 1.118 1.349v3.014h-.667V74.06c0-.326-.022-.855-.627-.855-.356 0-.84.238-.84.855v2.934h-.667v-4.251h.002zm3.87-1.239h.667v1.239h.737v.524h-.737v2.728c0 .341.088.477.436.477.143 0 .223-.015.293-.025v.547c-.088.015-.261.048-.539.048-.69 0-.858-.286-.858-.84v-2.934h-.619v-.524h.619v-1.239zm3.781-.173h.697v5.663h-.697v-5.663zm1.6 1.412h.634v.499h.015c.176-.389.619-.612 1.031-.612 1.118 0 1.118.85 1.118 1.349v3.014h-.667V74.06c0-.326-.023-.855-.627-.855-.356 0-.84.238-.84.855v2.934h-.667v-4.251h.002zm3.619-1.412h.667v.76h-.667v-.76zm0 1.412h.667v4.251h-.667v-4.251zm1.776-1.239h.667v1.239h.737v.524h-.737v2.728c0 .341.088.477.436.477.143 0 .223-.015.294-.025v.547c-.088.015-.261.048-.539.048-.69 0-.858-.286-.858-.84v-2.934h-.619v-.524h.619v-1.239zm1.895-.173h.667v.76h-.667v-.76zm0 1.412h.667v4.251h-.667v-4.251zm1.415 1.284c0-.968.414-1.397 1.427-1.397 1.294 0 1.294.777 1.294 1.221v2.372c0 .173 0 .341.206.341.088 0 .128-.015.158-.04V77c-.048.008-.221.04-.389.04-.253 0-.572 0-.602-.547h-.015a1.2 1.2 0 0 1-1.023.609c-.793 0-1.159-.477-1.159-1.236 0-.594.253-1.008.8-1.174l.895-.268c.484-.15.484-.286.484-.642 0-.396-.238-.627-.682-.627-.73 0-.73.682-.73.833v.04h-.667l.002-.003zm2.054.65c-.246.261-.833.319-1.133.499-.213.135-.326.301-.326.675 0 .429.15.73.602.73s.858-.374.858-.808v-1.096zm1.758-3.173h.667v1.239h.737v.524h-.737v2.728c0 .341.088.477.436.477.143 0 .223-.015.293-.025v.547c-.088.015-.261.048-.539.048-.69 0-.858-.286-.858-.84v-2.934h-.619v-.524h.619v-1.239zm1.896-.173h.667v.76h-.667v-.76zm0 1.412h.667v4.251h-.667v-4.251zm1.191 0h.73l.792 3.411h.015l.792-3.411h.73l-1.151 4.251h-.762l-1.151-4.251h.005zm4.022 2.205c0 .65 0 1.633.818 1.633.634 0 .722-.667.722-.983h.667c0 .451-.271 1.507-1.427 1.507-1.038 0-1.474-.722-1.474-2.182 0-1.063.205-2.292 1.514-2.292s1.42 1.134 1.42 2.046v.271h-2.237-.003zm1.54-.524v-.231c0-.477-.151-1.038-.737-1.038-.697 0-.778.858-.778 1.111v.158h1.515zm.507-8.291H2.666v.354h101.613v-.354zm51.484-62.406h-.353v69.651h.353V3.727z"/></g></g><defs><clipPath id="A"><path fill="#fff" d="M0 0h336v77.104H0z"/></clipPath><path id="B" d="M195.737 29.875h4.514v6.222h6.272v-6.222h4.514v17.008h-4.514v-6.656h-6.272v6.656h-4.514V29.875z"/><path id="C" d="M24.04 71.504h.667v1.239h.737v.524h-.737v2.728c0 .341.088.477.436.477.143 0 .223-.015.293-.025v.547c-.088.015-.261.048-.539.048-.69 0-.858-.286-.858-.84v-2.934h-.619v-.524h.619v-1.239z"/><path id="D" d="M33.343 71.331h.667v.76h-.667v-.76zm0 1.412h.667v4.251h-.667v-4.251z"/></defs></svg>